<?xml version="1.0" encoding="UTF-8" standalone="no"?>
<!DOCTYPE svg PUBLIC "-//W3C//DTD SVG 1.1//EN" "http://www.w3.org/Graphics/SVG/1.1/DTD/svg11.dtd">
<svg width="100%" height="100%" viewBox="0 0 596 842" version="1.1" xmlns="http://www.w3.org/2000/svg" xmlns:xlink="http://www.w3.org/1999/xlink" xml:space="preserve" xmlns:serif="http://www.serif.com/" style="fill-rule:evenodd;clip-rule:evenodd;stroke-linejoin:round;stroke-miterlimit:2;">
    <g id="Camada_x0020_1">
        <path d="M27.956,665.113L569.061,665.093L569.006,129.912C552.648,124.519 336.326,128.315 300.082,128.315C209.383,128.315 118.677,128.405 27.978,128.297L27.956,665.113Z" style="fill:white;fill-opacity:0;"/>
        <path d="M110.157,335.958C169.843,338.723 235.521,336.299 295.864,336.284C330.958,336.277 377.565,329.651 390.414,380.717C395.234,399.875 390.063,404.404 385.821,421.039C394.387,416.971 474.972,335.278 481.272,325.316C495.997,302.032 490.11,274.449 473.141,255.729C454.2,234.837 428.412,238.683 394.99,238.678C371.133,238.675 215.209,236.351 205.823,239.525C204.144,240.093 114.066,325.986 110.157,335.958Z" style="fill:rgb(236,103,26);"/>
        <path d="M487.255,456.738C431.242,452.954 361.809,456.484 304.301,456.487C272.304,456.487 245.012,460.584 225.099,442.641C202.308,422.103 203.691,405.49 210.387,372.838L196.544,384.346C178.509,403.146 122.615,455.176 114.791,469.255C101.504,493.165 108.426,521.224 124.14,537.306C143.159,556.773 169.078,553.801 203.066,553.801C226.031,553.799 383.885,555.759 392.113,552.718C396.166,551.221 436.369,509.558 440.337,505.812C451.228,495.524 484.7,463.083 487.255,456.738Z" style="fill:rgb(236,103,26);"/>
    </g>
</svg>
